<svg width="137" height="40" viewBox="0 0 137 40" fill="none" xmlns="http://www.w3.org/2000/svg">
<path d="M24.6263 9.98925L26.9988 19.4873L24.6245 29.0107H17.3696L14.9971 19.5L17.3696 9.98925H24.6263ZM25.1674 6H16.8303C15.321 6 14.0054 7.02995 13.6399 8.49691L11.1045 18.6514C10.9652 19.2081 10.9652 19.7919 11.1045 20.3486L13.638 30.5031C14.0036 31.97 15.3192 33 16.8285 33H25.1656C26.6749 33 27.9905 31.97 28.3561 30.5031L30.9023 20.287C31.0326 19.7629 31.0326 19.2135 30.9023 18.6876L28.3579 8.49691C27.9923 7.02995 26.6767 6.00181 25.1674 6.00181V6Z" fill="#CAAAF0"/>
<path d="M45.9703 29.364C44.0983 29.364 42.4603 28.194 41.5503 26.426V29H38.4043V10.41H41.5503V17.508C42.4603 15.662 44.1243 14.492 45.9963 14.492C49.6623 14.492 52.0803 17.456 52.0803 21.928C52.0803 26.348 49.5843 29.364 45.9703 29.364ZM41.5503 22.604C41.5503 24.918 43.1883 26.79 45.1643 26.79C47.2703 26.79 48.7263 24.84 48.7263 21.928C48.7263 19.016 47.2703 17.066 45.1643 17.066C43.1363 17.066 41.5503 19.016 41.5503 21.356V22.604ZM65.1971 29.364C63.4811 29.364 62.3891 28.298 62.3891 26.296V26.166C61.5571 28.012 59.9711 29.364 57.5791 29.364C54.9791 29.364 53.3931 27.804 53.3931 25.568C53.3931 22.344 56.6431 20.342 62.3891 19.77V19.64C62.3891 17.95 61.6611 16.832 60.0491 16.832C58.2551 16.832 56.6691 17.872 55.6551 19.926L53.3931 18.184C55.1351 15.714 57.6051 14.492 60.3351 14.492C64.0791 14.492 65.5611 16.546 65.5611 19.536V26.296C65.5611 26.92 65.7691 27.18 66.2891 27.18C66.6271 27.18 66.8871 27.128 67.3031 26.92L66.9131 29C66.4451 29.208 65.8211 29.364 65.1971 29.364ZM56.6951 25.1C56.6951 26.14 57.4231 26.79 58.5411 26.79C60.4391 26.79 62.3891 25.23 62.3891 22.5V21.954C59.0351 22.292 56.6951 23.176 56.6951 25.1ZM68.8223 29V14.856H71.9943V18.21C72.8783 16.026 74.3343 14.492 75.7903 14.492C76.6223 14.492 77.2203 14.752 77.7923 15.324L76.5183 18.184C75.9723 17.69 75.5303 17.456 74.8543 17.456C73.5543 17.456 71.9943 19.172 71.9943 22.032V25.984C71.9943 27.18 72.0203 28.09 72.1243 29H68.8223ZM79.1309 29V14.856H82.3029V18.21C83.1869 16.026 84.6429 14.492 86.0989 14.492C86.9309 14.492 87.5289 14.752 88.1009 15.324L86.8269 18.184C86.2809 17.69 85.8389 17.456 85.1629 17.456C83.8629 17.456 82.3029 19.172 82.3029 22.032V25.984C82.3029 27.18 82.3289 28.09 82.4329 29H79.1309ZM94.8391 29.364C90.9911 29.364 88.0011 26.79 88.0011 22.266C88.0011 17.638 90.7831 14.492 94.7611 14.492C99.0251 14.492 100.975 17.768 100.975 22.552H91.2251C91.3551 25.36 92.8631 27.024 94.8391 27.024C96.7371 27.024 98.0631 25.568 98.5571 23.956L101.131 25.646C99.5971 28.168 97.3351 29.364 94.8391 29.364ZM91.3811 20.342H97.7771C97.5691 18.236 96.5551 16.806 94.7611 16.806C93.0451 16.806 91.7971 18.106 91.3811 20.342ZM103.099 29V10.41H106.245V25.62C106.245 26.686 106.297 27.856 106.401 29H103.099Z" fill="black"/>
</svg>
