<svg width="307" height="307" viewBox="0 0 307 307" fill="none" xmlns="http://www.w3.org/2000/svg">
<path d="M134.407 26.2206C144.951 15.6764 162.047 15.6764 172.591 26.2206L280.778 134.408C291.322 144.952 291.322 162.048 280.778 172.592L205.525 247.845C205.014 248.356 204.209 248.688 203.015 248.562C201.772 248.432 200.434 247.811 199.461 246.838L182.49 229.867C168.041 215.418 144.614 215.418 130.165 229.867L113.194 246.838C111.575 248.457 109.271 249.617 107.068 249.94C104.902 250.258 103.359 249.731 102.395 248.767L26.2198 172.592C15.6757 162.048 15.6757 144.952 26.2198 134.408L134.407 26.2206Z" fill="white" stroke="#999999" stroke-width="10"/>
<path d="M153 153C164.046 153 173 144.046 173 133C173 121.954 164.046 113 153 113C141.954 113 133 121.954 133 133C133 144.046 141.954 153 153 153Z" stroke="#999999" stroke-width="8" stroke-linecap="round" stroke-linejoin="round"/>
<path d="M118 193V188C118 168.67 133.67 153 153 153C158.368 153 163.453 154.209 168 156.368" stroke="#999999" stroke-width="8" stroke-linecap="round" stroke-linejoin="round"/>
<path d="M198 203L203 173L185.5 182L178 173L170.5 182L153 173L158 203H198Z" stroke="#999999" stroke-width="8" stroke-linecap="round" stroke-linejoin="round"/>
</svg>
