<svg width="216" height="304" viewBox="0 0 216 304" fill="none" xmlns="http://www.w3.org/2000/svg">
<circle cx="108" cy="76" r="72" fill="#EBF8F4"/>
<g filter="url(#filter0_d_11_63350)">
<path d="M30 33C30 29.6863 32.6863 27 36 27H180C183.314 27 186 29.6863 186 33V185C186 188.314 183.314 191 180 191H36C32.6863 191 30 188.314 30 185V33Z" fill="white"/>
<path d="M36 27.25H180C183.176 27.25 185.75 29.8244 185.75 33V185C185.75 188.176 183.176 190.75 180 190.75H36C32.8244 190.75 30.25 188.176 30.25 185V33C30.25 29.8244 32.8244 27.25 36 27.25Z" stroke="#EAEDF2" stroke-width="0.5"/>
</g>
<g filter="url(#filter1_dd_11_63350)">
<path d="M12 47C12 42.5817 15.5817 39 20 39H196C200.418 39 204 42.5817 204 47V171C204 175.418 200.418 179 196 179H20C15.5817 179 12 175.418 12 171V47Z" fill="white"/>
<path d="M20 39.25H196C200.28 39.25 203.75 42.7198 203.75 47V171C203.75 175.28 200.28 178.75 196 178.75H20C15.7198 178.75 12.25 175.28 12.25 171V47C12.25 42.7198 15.7198 39.25 20 39.25Z" stroke="#EAEDF2" stroke-width="0.5"/>
</g>
<path d="M20 55C20 50.5817 23.5817 47 28 47H46C50.4183 47 54 50.5817 54 55V73C54 77.4183 50.4183 81 46 81H28C23.5817 81 20 77.4183 20 73V55Z" fill="#EAEDF2"/>
<path d="M20 137C20 134.791 21.7909 133 24 133H32C34.2091 133 36 134.791 36 137V145C36 147.209 34.2091 149 32 149H24C21.7909 149 20 147.209 20 145V137Z" fill="#EAEDF2"/>
<path d="M20 157C20 154.791 21.7909 153 24 153H32C34.2091 153 36 154.791 36 157V165C36 167.209 34.2091 169 32 169H24C21.7909 169 20 167.209 20 165V157Z" fill="#EAEDF2"/>
<rect x="64" y="52" width="101" height="10" rx="5" fill="url(#paint0_linear_11_63350)"/>
<rect x="64" y="69" width="114" height="8" rx="4" fill="url(#paint1_linear_11_63350)"/>
<rect x="20" y="91" width="44" height="6" rx="3" fill="url(#paint2_linear_11_63350)"/>
<rect x="42" y="138" width="44" height="6" rx="3" fill="url(#paint3_linear_11_63350)"/>
<rect x="42" y="158" width="44" height="6" rx="3" fill="url(#paint4_linear_11_63350)"/>
<path d="M24.7841 124.455V109.909H25.7159V124.455H24.7841ZM27.4716 114.562C27.4186 114.066 27.1951 113.68 26.8011 113.403C26.411 113.127 25.9034 112.989 25.2784 112.989C24.839 112.989 24.4621 113.055 24.1477 113.188C23.8333 113.32 23.5928 113.5 23.4261 113.727C23.2595 113.955 23.1742 114.214 23.1705 114.506C23.1705 114.748 23.2254 114.958 23.3352 115.136C23.4489 115.314 23.6023 115.466 23.7955 115.591C23.9886 115.712 24.2027 115.814 24.4375 115.898C24.6723 115.981 24.9091 116.051 25.1477 116.108L26.2386 116.381C26.678 116.483 27.1004 116.621 27.5057 116.795C27.9148 116.97 28.2803 117.189 28.6023 117.455C28.928 117.72 29.1856 118.04 29.375 118.415C29.5644 118.79 29.6591 119.229 29.6591 119.733C29.6591 120.415 29.4848 121.015 29.1364 121.534C28.7879 122.049 28.2841 122.453 27.625 122.744C26.9697 123.032 26.1761 123.176 25.2443 123.176C24.339 123.176 23.553 123.036 22.8864 122.756C22.2235 122.475 21.7045 122.066 21.3295 121.528C20.9583 120.991 20.7576 120.335 20.7273 119.562H22.8011C22.8314 119.968 22.9564 120.305 23.1761 120.574C23.3958 120.843 23.6818 121.044 24.0341 121.176C24.3902 121.309 24.7879 121.375 25.2273 121.375C25.6856 121.375 26.0871 121.307 26.4318 121.17C26.7803 121.03 27.053 120.837 27.25 120.591C27.447 120.341 27.5473 120.049 27.5511 119.716C27.5473 119.413 27.4583 119.163 27.2841 118.966C27.1098 118.765 26.8655 118.598 26.5511 118.466C26.2405 118.33 25.8769 118.208 25.4602 118.102L24.1364 117.761C23.178 117.515 22.4205 117.142 21.8636 116.642C21.3106 116.138 21.0341 115.47 21.0341 114.636C21.0341 113.951 21.2197 113.35 21.5909 112.835C21.9659 112.32 22.4754 111.92 23.1193 111.636C23.7633 111.348 24.4924 111.205 25.3068 111.205C26.1326 111.205 26.8561 111.348 27.4773 111.636C28.1023 111.92 28.5928 112.316 28.9489 112.824C29.3049 113.328 29.4886 113.907 29.5 114.562H27.4716ZM36.1577 111.364V123H34.0497V113.415H33.9815L31.2599 115.153V113.222L34.152 111.364H36.1577ZM43.4134 123.222C42.4777 123.222 41.6747 122.985 41.0043 122.511C40.3376 122.034 39.8243 121.347 39.4645 120.449C39.1084 119.547 38.9304 118.462 38.9304 117.193C38.9342 115.924 39.1141 114.845 39.4702 113.955C39.83 113.061 40.3433 112.379 41.0099 111.909C41.6804 111.439 42.4815 111.205 43.4134 111.205C44.3452 111.205 45.1463 111.439 45.8168 111.909C46.4872 112.379 47.0005 113.061 47.3565 113.955C47.7164 114.848 47.8963 115.928 47.8963 117.193C47.8963 118.466 47.7164 119.553 47.3565 120.455C47.0005 121.352 46.4872 122.038 45.8168 122.511C45.1501 122.985 44.349 123.222 43.4134 123.222ZM43.4134 121.443C44.1406 121.443 44.7145 121.085 45.1349 120.369C45.5592 119.65 45.7713 118.591 45.7713 117.193C45.7713 116.269 45.6747 115.492 45.4815 114.864C45.2884 114.235 45.0156 113.761 44.6634 113.443C44.3111 113.121 43.8944 112.96 43.4134 112.96C42.6899 112.96 42.1179 113.32 41.6974 114.04C41.277 114.756 41.0649 115.807 41.0611 117.193C41.0573 118.121 41.1501 118.902 41.3395 119.534C41.5327 120.167 41.8054 120.644 42.1577 120.966C42.5099 121.284 42.9285 121.443 43.4134 121.443ZM54.0852 123.222C53.1496 123.222 52.3466 122.985 51.6761 122.511C51.0095 122.034 50.4962 121.347 50.1364 120.449C49.7803 119.547 49.6023 118.462 49.6023 117.193C49.6061 115.924 49.786 114.845 50.142 113.955C50.5019 113.061 51.0152 112.379 51.6818 111.909C52.3523 111.439 53.1534 111.205 54.0852 111.205C55.017 111.205 55.8182 111.439 56.4886 111.909C57.1591 112.379 57.6723 113.061 58.0284 113.955C58.3883 114.848 58.5682 115.928 58.5682 117.193C58.5682 118.466 58.3883 119.553 58.0284 120.455C57.6723 121.352 57.1591 122.038 56.4886 122.511C55.822 122.985 55.0208 123.222 54.0852 123.222ZM54.0852 121.443C54.8125 121.443 55.3864 121.085 55.8068 120.369C56.2311 119.65 56.4432 118.591 56.4432 117.193C56.4432 116.269 56.3466 115.492 56.1534 114.864C55.9602 114.235 55.6875 113.761 55.3352 113.443C54.983 113.121 54.5663 112.96 54.0852 112.96C53.3617 112.96 52.7898 113.32 52.3693 114.04C51.9489 114.756 51.7367 115.807 51.733 117.193C51.7292 118.121 51.822 118.902 52.0114 119.534C52.2045 120.167 52.4773 120.644 52.8295 120.966C53.1818 121.284 53.6004 121.443 54.0852 121.443ZM61.2926 123.125C60.9479 123.125 60.6525 123.004 60.4062 122.761C60.16 122.519 60.0388 122.223 60.0426 121.875C60.0388 121.534 60.16 121.242 60.4062 121C60.6525 120.758 60.9479 120.636 61.2926 120.636C61.6259 120.636 61.9157 120.758 62.1619 121C62.4119 121.242 62.5388 121.534 62.5426 121.875C62.5388 122.106 62.4782 122.316 62.3608 122.506C62.2472 122.695 62.0956 122.847 61.9062 122.96C61.7206 123.07 61.5161 123.125 61.2926 123.125ZM68.4915 123.222C67.5559 123.222 66.7528 122.985 66.0824 122.511C65.4157 122.034 64.9025 121.347 64.5426 120.449C64.1866 119.547 64.0085 118.462 64.0085 117.193C64.0123 115.924 64.1922 114.845 64.5483 113.955C64.9081 113.061 65.4214 112.379 66.0881 111.909C66.7585 111.439 67.5597 111.205 68.4915 111.205C69.4233 111.205 70.2244 111.439 70.8949 111.909C71.5653 112.379 72.0786 113.061 72.4347 113.955C72.7945 114.848 72.9744 115.928 72.9744 117.193C72.9744 118.466 72.7945 119.553 72.4347 120.455C72.0786 121.352 71.5653 122.038 70.8949 122.511C70.2282 122.985 69.4271 123.222 68.4915 123.222ZM68.4915 121.443C69.2188 121.443 69.7926 121.085 70.2131 120.369C70.6373 119.65 70.8494 118.591 70.8494 117.193C70.8494 116.269 70.7528 115.492 70.5597 114.864C70.3665 114.235 70.0938 113.761 69.7415 113.443C69.3892 113.121 68.9725 112.96 68.4915 112.96C67.768 112.96 67.196 113.32 66.7756 114.04C66.3551 114.756 66.143 115.807 66.1392 117.193C66.1354 118.121 66.2282 118.902 66.4176 119.534C66.6108 120.167 66.8835 120.644 67.2358 120.966C67.5881 121.284 68.0066 121.443 68.4915 121.443ZM79.1634 123.222C78.2277 123.222 77.4247 122.985 76.7543 122.511C76.0876 122.034 75.5743 121.347 75.2145 120.449C74.8584 119.547 74.6804 118.462 74.6804 117.193C74.6842 115.924 74.8641 114.845 75.2202 113.955C75.58 113.061 76.0933 112.379 76.7599 111.909C77.4304 111.439 78.2315 111.205 79.1634 111.205C80.0952 111.205 80.8963 111.439 81.5668 111.909C82.2372 112.379 82.7505 113.061 83.1065 113.955C83.4664 114.848 83.6463 115.928 83.6463 117.193C83.6463 118.466 83.4664 119.553 83.1065 120.455C82.7505 121.352 82.2372 122.038 81.5668 122.511C80.9001 122.985 80.099 123.222 79.1634 123.222ZM79.1634 121.443C79.8906 121.443 80.4645 121.085 80.8849 120.369C81.3092 119.65 81.5213 118.591 81.5213 117.193C81.5213 116.269 81.4247 115.492 81.2315 114.864C81.0384 114.235 80.7656 113.761 80.4134 113.443C80.0611 113.121 79.6444 112.96 79.1634 112.96C78.4399 112.96 77.8679 113.32 77.4474 114.04C77.027 114.756 76.8149 115.807 76.8111 117.193C76.8073 118.121 76.9001 118.902 77.0895 119.534C77.2827 120.167 77.5554 120.644 77.9077 120.966C78.2599 121.284 78.6785 121.443 79.1634 121.443ZM96.9517 111.364H99.0597V118.966C99.0597 119.799 98.8627 120.532 98.4688 121.165C98.0786 121.797 97.5294 122.292 96.821 122.648C96.1127 123 95.285 123.176 94.3381 123.176C93.3873 123.176 92.5578 123 91.8494 122.648C91.1411 122.292 90.5919 121.797 90.2017 121.165C89.8116 120.532 89.6165 119.799 89.6165 118.966V111.364H91.7244V118.79C91.7244 119.275 91.8305 119.706 92.0426 120.085C92.2585 120.464 92.5616 120.761 92.9517 120.977C93.3419 121.189 93.804 121.295 94.3381 121.295C94.8722 121.295 95.3343 121.189 95.7244 120.977C96.1184 120.761 96.4214 120.464 96.6335 120.085C96.8456 119.706 96.9517 119.275 96.9517 118.79V111.364ZM107.675 114.562C107.622 114.066 107.398 113.68 107.004 113.403C106.614 113.127 106.107 112.989 105.482 112.989C105.042 112.989 104.665 113.055 104.351 113.188C104.036 113.32 103.796 113.5 103.629 113.727C103.463 113.955 103.377 114.214 103.374 114.506C103.374 114.748 103.429 114.958 103.538 115.136C103.652 115.314 103.805 115.466 103.999 115.591C104.192 115.712 104.406 115.814 104.641 115.898C104.875 115.981 105.112 116.051 105.351 116.108L106.442 116.381C106.881 116.483 107.304 116.621 107.709 116.795C108.118 116.97 108.483 117.189 108.805 117.455C109.131 117.72 109.389 118.04 109.578 118.415C109.768 118.79 109.862 119.229 109.862 119.733C109.862 120.415 109.688 121.015 109.339 121.534C108.991 122.049 108.487 122.453 107.828 122.744C107.173 123.032 106.379 123.176 105.447 123.176C104.542 123.176 103.756 123.036 103.089 122.756C102.427 122.475 101.908 122.066 101.533 121.528C101.161 120.991 100.961 120.335 100.93 119.562H103.004C103.035 119.968 103.16 120.305 103.379 120.574C103.599 120.843 103.885 121.044 104.237 121.176C104.593 121.309 104.991 121.375 105.43 121.375C105.889 121.375 106.29 121.307 106.635 121.17C106.983 121.03 107.256 120.837 107.453 120.591C107.65 120.341 107.75 120.049 107.754 119.716C107.75 119.413 107.661 119.163 107.487 118.966C107.313 118.765 107.069 118.598 106.754 118.466C106.444 118.33 106.08 118.208 105.663 118.102L104.339 117.761C103.381 117.515 102.624 117.142 102.067 116.642C101.514 116.138 101.237 115.47 101.237 114.636C101.237 113.951 101.423 113.35 101.794 112.835C102.169 112.32 102.679 111.92 103.322 111.636C103.966 111.348 104.696 111.205 105.51 111.205C106.336 111.205 107.059 111.348 107.68 111.636C108.305 111.92 108.796 112.316 109.152 112.824C109.508 113.328 109.692 113.907 109.703 114.562H107.675ZM115.685 123H111.741V111.364H115.764C116.92 111.364 117.912 111.597 118.741 112.062C119.575 112.525 120.215 113.189 120.662 114.057C121.109 114.924 121.332 115.962 121.332 117.17C121.332 118.383 121.107 119.424 120.656 120.295C120.209 121.167 119.563 121.835 118.719 122.301C117.878 122.767 116.866 123 115.685 123ZM113.849 121.176H115.582C116.393 121.176 117.069 121.028 117.611 120.733C118.152 120.434 118.56 119.989 118.832 119.398C119.105 118.803 119.241 118.061 119.241 117.17C119.241 116.28 119.105 115.542 118.832 114.955C118.56 114.364 118.156 113.922 117.622 113.631C117.092 113.335 116.433 113.188 115.645 113.188H113.849V121.176Z" fill="#0F0F10"/>
<g filter="url(#filter2_d_11_63350)">
<circle cx="177" cy="149" r="20" fill="#6005D5"/>
</g>
<path fill-rule="evenodd" clip-rule="evenodd" d="M176.999 140.042C175.598 140.042 174.459 140.515 173.466 141.03C173.165 141.185 172.887 141.339 172.62 141.486L172.62 141.486C171.968 141.846 171.39 142.165 170.755 142.367C170.383 142.486 170.053 142.591 169.818 142.683C169.598 142.769 169.336 142.888 169.15 143.094C168.984 143.28 168.898 143.488 168.841 143.687C168.789 143.868 168.745 144.113 168.703 144.348C167.671 150.069 169.927 155.489 175.436 157.598C175.977 157.806 176.376 157.958 177.002 157.958C177.628 157.958 178.027 157.806 178.568 157.598C184.077 155.489 186.33 150.069 185.298 144.348L185.298 144.348C185.256 144.113 185.212 143.868 185.16 143.687C185.103 143.488 185.018 143.28 184.851 143.094C184.665 142.888 184.403 142.769 184.183 142.683C183.948 142.591 183.618 142.486 183.246 142.367C182.611 142.165 182.032 141.846 181.38 141.486L181.38 141.486C181.113 141.339 180.834 141.185 180.534 141.03C179.54 140.515 178.4 140.042 176.999 140.042ZM181.445 147.286C181.879 147.132 182.106 146.656 181.952 146.222C181.799 145.788 181.322 145.561 180.888 145.715C180.157 145.974 179.457 146.468 178.843 147.007C178.221 147.553 177.639 148.186 177.144 148.779C176.778 149.218 176.455 149.641 176.192 150C175.951 149.712 175.712 149.501 175.483 149.349C175.254 149.196 174.96 149 174.5 149C174.04 149 173.667 149.373 173.667 149.834C173.667 150.268 173.998 150.624 174.422 150.663C174.592 150.679 175.054 151.139 175.421 151.873C175.556 152.142 175.824 152.317 176.124 152.333C176.424 152.348 176.709 152.201 176.87 151.947C176.87 151.947 177.16 151.512 177.298 151.317C177.574 150.926 177.964 150.398 178.424 149.847C178.886 149.293 179.407 148.729 179.942 148.26C180.486 147.782 181 147.443 181.445 147.286Z" fill="white"/>
<g filter="url(#filter3_d_11_63350)">
<rect x="22.5" y="223" width="172" height="46" rx="6" fill="white"/>
<rect x="22.75" y="223.25" width="171.5" height="45.5" rx="5.75" stroke="#EAEDF2" stroke-width="0.5"/>
</g>
<g filter="url(#filter4_dd_11_63350)">
<path d="M32.5 218C32.5 214.686 35.1863 212 38.5 212H100.5C103.814 212 106.5 214.686 106.5 218V274C106.5 277.314 103.814 280 100.5 280H38.5C35.1863 280 32.5 277.314 32.5 274V218Z" fill="white"/>
<path d="M38.5 212.25H100.5C103.676 212.25 106.25 214.824 106.25 218V274C106.25 277.176 103.676 279.75 100.5 279.75H38.5C35.3244 279.75 32.75 277.176 32.75 274V218C32.75 214.824 35.3244 212.25 38.5 212.25Z" stroke="#EAEDF2" stroke-width="0.5"/>
</g>
<rect x="41.5" y="260" width="56" height="4" rx="2" fill="url(#paint5_linear_11_63350)"/>
<rect x="50.5" y="268" width="38" height="4" rx="2" fill="url(#paint6_linear_11_63350)"/>
<rect x="50.5" y="268" width="38" height="4" rx="2" fill="url(#paint7_linear_11_63350)"/>
<path d="M57.5762 225.638C57.5383 225.302 57.382 225.041 57.1074 224.857C56.8328 224.67 56.4872 224.576 56.0705 224.576C55.7722 224.576 55.5141 224.623 55.2963 224.718C55.0785 224.81 54.9093 224.938 54.7885 225.102C54.6702 225.263 54.611 225.446 54.611 225.652C54.611 225.825 54.6512 225.974 54.7317 226.099C54.8146 226.225 54.9223 226.33 55.0549 226.415C55.1898 226.498 55.3342 226.568 55.4881 226.625C55.642 226.679 55.79 226.724 55.932 226.76L56.6422 226.945C56.8742 227.001 57.1122 227.078 57.356 227.175C57.5998 227.272 57.8259 227.4 58.0343 227.559C58.2426 227.718 58.4107 227.914 58.5385 228.148C58.6687 228.383 58.7338 228.663 58.7338 228.99C58.7338 229.402 58.6273 229.768 58.4142 230.087C58.2035 230.407 57.897 230.659 57.4945 230.844C57.0944 231.028 56.6103 231.121 56.0421 231.121C55.4976 231.121 55.0265 231.034 54.6287 230.862C54.231 230.689 53.9197 230.444 53.6948 230.126C53.4699 229.807 53.3456 229.428 53.3219 228.99H54.4228C54.4441 229.253 54.5293 229.472 54.6784 229.647C54.83 229.82 55.0229 229.949 55.2573 230.034C55.494 230.117 55.7533 230.158 56.035 230.158C56.3451 230.158 56.6209 230.11 56.8624 230.013C57.1062 229.913 57.298 229.776 57.4377 229.601C57.5774 229.423 57.6472 229.216 57.6472 228.979C57.6472 228.764 57.5856 228.588 57.4625 228.45C57.3418 228.313 57.1773 228.199 56.9689 228.109C56.763 228.019 56.5298 227.94 56.2694 227.871L55.41 227.637C54.8276 227.478 54.3659 227.245 54.025 226.938C53.6865 226.63 53.5172 226.223 53.5172 225.716C53.5172 225.297 53.6309 224.931 53.8581 224.619C54.0854 224.306 54.3932 224.063 54.7814 223.891C55.1697 223.715 55.6077 223.628 56.0953 223.628C56.5878 223.628 57.0222 223.714 57.3986 223.887C57.7774 224.06 58.0757 224.298 58.2935 224.601C58.5113 224.902 58.6249 225.247 58.6344 225.638H57.5762ZM62.506 225.545V226.398H59.5266V225.545H62.506ZM60.3256 224.239H61.3874V229.398C61.3874 229.604 61.4182 229.759 61.4798 229.864C61.5413 229.965 61.6206 230.035 61.7177 230.073C61.8171 230.109 61.9248 230.126 62.0408 230.126C62.1261 230.126 62.2006 230.121 62.2646 230.109C62.3285 230.097 62.3782 230.087 62.4137 230.08L62.6055 230.957C62.5439 230.981 62.4563 231.005 62.3427 231.028C62.229 231.054 62.087 231.069 61.9165 231.071C61.6372 231.076 61.3768 231.026 61.1353 230.922C60.8938 230.818 60.6985 230.657 60.5494 230.439C60.4002 230.221 60.3256 229.948 60.3256 229.619V224.239ZM65.2679 231.121C64.9223 231.121 64.6098 231.057 64.3304 230.929C64.0511 230.799 63.8297 230.611 63.6664 230.364C63.5054 230.118 63.4249 229.816 63.4249 229.459C63.4249 229.151 63.4841 228.898 63.6025 228.699C63.7208 228.5 63.8806 228.343 64.0819 228.227C64.2831 228.111 64.508 228.023 64.7566 227.964C65.0051 227.905 65.2585 227.86 65.5165 227.829C65.8432 227.791 66.1084 227.76 66.312 227.737C66.5156 227.71 66.6635 227.669 66.7559 227.612C66.8482 227.555 66.8944 227.463 66.8944 227.335V227.31C66.8944 227 66.8068 226.76 66.6316 226.589C66.4587 226.419 66.2007 226.334 65.8574 226.334C65.4999 226.334 65.2182 226.413 65.0123 226.572C64.8087 226.728 64.6678 226.902 64.5897 227.094L63.5918 226.866C63.7102 226.535 63.883 226.268 64.1103 226.064C64.3399 225.858 64.6039 225.709 64.9022 225.616C65.2005 225.522 65.5141 225.474 65.8432 225.474C66.061 225.474 66.2918 225.5 66.5357 225.553C66.7819 225.602 67.0115 225.695 67.2246 225.83C67.44 225.964 67.6164 226.157 67.7537 226.408C67.891 226.657 67.9597 226.98 67.9597 227.378V231H66.9228V230.254H66.8801C66.8115 230.392 66.7085 230.527 66.5712 230.659C66.4339 230.792 66.2575 230.902 66.0421 230.989C65.8266 231.077 65.5686 231.121 65.2679 231.121ZM65.4988 230.268C65.7923 230.268 66.0433 230.21 66.2516 230.094C66.4623 229.978 66.6221 229.827 66.731 229.64C66.8423 229.451 66.8979 229.248 66.8979 229.033V228.33C66.86 228.367 66.7866 228.403 66.6777 228.436C66.5712 228.467 66.4493 228.494 66.312 228.518C66.1747 228.539 66.0409 228.559 65.9107 228.578C65.7805 228.595 65.6716 228.609 65.584 228.621C65.378 228.647 65.1898 228.691 65.0194 228.752C64.8513 228.814 64.7163 228.902 64.6145 229.018C64.5151 229.132 64.4654 229.284 64.4654 229.473C64.4654 229.736 64.5624 229.935 64.7566 230.07C64.9507 230.202 65.1981 230.268 65.4988 230.268ZM69.3739 231V225.545H70.4002V226.412H70.457C70.5565 226.118 70.7317 225.888 70.9826 225.719C71.2359 225.549 71.5224 225.464 71.842 225.464C71.9083 225.464 71.9864 225.466 72.0763 225.471C72.1687 225.476 72.2409 225.482 72.293 225.489V226.504C72.2504 226.492 72.1746 226.479 72.0657 226.465C71.9568 226.449 71.8479 226.44 71.739 226.44C71.488 226.44 71.2643 226.494 71.0678 226.6C70.8737 226.704 70.7198 226.85 70.6062 227.037C70.4925 227.222 70.4357 227.432 70.4357 227.669V231H69.3739ZM76.0803 225.545V226.398H73.1009V225.545H76.0803ZM73.8999 224.239H74.9616V229.398C74.9616 229.604 74.9924 229.759 75.054 229.864C75.1155 229.965 75.1948 230.035 75.2919 230.073C75.3913 230.109 75.4991 230.126 75.6151 230.126C75.7003 230.126 75.7749 230.121 75.8388 230.109C75.9027 230.097 75.9524 230.087 75.9879 230.08L76.1797 230.957C76.1181 230.981 76.0305 231.005 75.9169 231.028C75.8033 231.054 75.6612 231.069 75.4908 231.071C75.2114 231.076 74.951 231.026 74.7095 230.922C74.468 230.818 74.2727 230.657 74.1236 230.439C73.9744 230.221 73.8999 229.948 73.8999 229.619V224.239ZM79.5471 231.11C79.0096 231.11 78.5468 230.995 78.1586 230.766C77.7727 230.534 77.4744 230.208 77.2637 229.789C77.0553 229.368 76.9512 228.874 76.9512 228.308C76.9512 227.75 77.0553 227.257 77.2637 226.831C77.4744 226.405 77.7679 226.072 78.1444 225.833C78.5231 225.594 78.9658 225.474 79.4725 225.474C79.7802 225.474 80.0785 225.525 80.3674 225.627C80.6562 225.729 80.9154 225.889 81.1451 226.107C81.3747 226.324 81.5558 226.607 81.6884 226.955C81.821 227.301 81.8873 227.721 81.8873 228.216V228.592H77.5513V227.797H80.8468C80.8468 227.518 80.79 227.27 80.6763 227.055C80.5627 226.837 80.4029 226.665 80.1969 226.54C79.9933 226.414 79.7542 226.352 79.4796 226.352C79.1813 226.352 78.9209 226.425 78.6983 226.572C78.4782 226.716 78.3077 226.906 78.187 227.14C78.0686 227.372 78.0094 227.624 78.0094 227.896V228.518C78.0094 228.882 78.0733 229.192 78.2012 229.448C78.3314 229.704 78.5125 229.899 78.7445 230.034C78.9765 230.167 79.2476 230.233 79.5577 230.233C79.7589 230.233 79.9424 230.205 80.1081 230.148C80.2739 230.089 80.4171 230.001 80.5378 229.885C80.6586 229.769 80.7509 229.626 80.8148 229.455L81.8198 229.636C81.7393 229.932 81.5949 230.192 81.3865 230.414C81.1806 230.634 80.9213 230.806 80.6088 230.929C80.2987 231.05 79.9448 231.11 79.5471 231.11ZM83.0653 231V225.545H84.0916V226.412H84.1484C84.2479 226.118 84.4231 225.888 84.674 225.719C84.9273 225.549 85.2138 225.464 85.5334 225.464C85.5997 225.464 85.6778 225.466 85.7678 225.471C85.8601 225.476 85.9323 225.482 85.9844 225.489V226.504C85.9418 226.492 85.866 226.479 85.7571 226.465C85.6482 226.449 85.5393 226.44 85.4304 226.44C85.1795 226.44 84.9557 226.494 84.7592 226.6C84.5651 226.704 84.4112 226.85 84.2976 227.037C84.1839 227.222 84.1271 227.432 84.1271 227.669V231H83.0653Z" fill="#888E9E"/>
<path d="M48.4917 252.091V241.182H49.1905V252.091H48.4917ZM50.6777 244.565C50.6323 244.162 50.4448 243.849 50.1152 243.628C49.7857 243.403 49.3709 243.291 48.8709 243.291C48.513 243.291 48.2033 243.348 47.9419 243.462C47.6806 243.572 47.4775 243.726 47.3326 243.922C47.1905 244.115 47.1195 244.335 47.1195 244.582C47.1195 244.79 47.1678 244.969 47.2644 245.119C47.3638 245.27 47.4931 245.396 47.6522 245.499C47.8141 245.598 47.9874 245.682 48.1721 245.75C48.3567 245.815 48.5343 245.869 48.7047 245.912L49.557 246.134C49.8354 246.202 50.1209 246.294 50.4135 246.411C50.7061 246.527 50.9775 246.68 51.2275 246.871C51.4775 247.061 51.6792 247.297 51.8326 247.578C51.9888 247.859 52.0669 248.196 52.0669 248.588C52.0669 249.082 51.9391 249.521 51.6834 249.905C51.4306 250.288 51.0627 250.591 50.5797 250.812C50.0996 251.034 49.5186 251.145 48.8368 251.145C48.1834 251.145 47.6181 251.041 47.1408 250.834C46.6635 250.626 46.29 250.332 46.0201 249.952C45.7502 249.568 45.601 249.114 45.5726 248.588H46.8936C46.9192 248.903 47.0215 249.166 47.2005 249.376C47.3823 249.584 47.6138 249.739 47.8951 249.841C48.1792 249.94 48.4902 249.99 48.8283 249.99C49.2005 249.99 49.5314 249.932 49.8212 249.815C50.1138 249.696 50.3439 249.531 50.5115 249.321C50.6792 249.108 50.763 248.859 50.763 248.575C50.763 248.317 50.6891 248.105 50.5414 247.94C50.3965 247.776 50.199 247.639 49.949 247.531C49.7019 247.423 49.4221 247.328 49.1096 247.246L48.0783 246.964C47.3794 246.774 46.8255 246.494 46.4164 246.125C46.0101 245.756 45.807 245.267 45.807 244.659C45.807 244.156 45.9434 243.717 46.2161 243.342C46.4888 242.967 46.8581 242.676 47.324 242.469C47.79 242.259 48.3155 242.153 48.9007 242.153C49.4917 242.153 50.013 242.257 50.4647 242.464C50.9192 242.672 51.2772 242.957 51.5385 243.321C51.7999 243.682 51.9363 244.097 51.9476 244.565H50.6777ZM56.4231 242.153C56.8123 242.156 57.1958 242.227 57.5737 242.366C57.9515 242.506 58.2924 242.733 58.5964 243.048C58.9032 243.364 59.1475 243.79 59.3294 244.327C59.514 244.861 59.6078 245.526 59.6106 246.321C59.6106 247.085 59.5339 247.766 59.3805 248.362C59.2271 248.956 59.0069 249.457 58.72 249.866C58.4359 250.276 58.0907 250.587 57.6845 250.8C57.2782 251.013 56.8208 251.119 56.3123 251.119C55.7924 251.119 55.3308 251.017 54.9274 250.812C54.524 250.608 54.1958 250.325 53.943 249.964C53.6902 249.601 53.5325 249.183 53.47 248.712H54.7697C54.8549 249.087 55.0282 249.391 55.2896 249.624C55.5538 249.854 55.8947 249.969 56.3123 249.969C56.9515 249.969 57.4501 249.69 57.8081 249.134C58.166 248.574 58.3464 247.793 58.3493 246.79H58.2811C58.1333 247.034 57.9487 247.244 57.7271 247.42C57.5083 247.597 57.2626 247.733 56.9899 247.83C56.7172 247.926 56.426 247.974 56.1163 247.974C55.6135 247.974 55.1561 247.851 54.7441 247.604C54.3322 247.357 54.0041 247.017 53.7598 246.585C53.5154 246.153 53.3933 245.661 53.3933 245.107C53.3933 244.555 53.5183 244.055 53.7683 243.607C54.0211 243.158 54.3734 242.803 54.8251 242.541C55.2797 242.277 55.8123 242.148 56.4231 242.153ZM56.4274 243.261C56.095 243.261 55.7953 243.344 55.5282 243.509C55.264 243.67 55.0552 243.891 54.9018 244.169C54.7484 244.445 54.6717 244.751 54.6717 245.089C54.6717 245.428 54.7456 245.734 54.8933 246.01C55.0439 246.283 55.2484 246.5 55.5069 246.662C55.7683 246.821 56.0666 246.901 56.4018 246.901C56.6518 246.901 56.8848 246.852 57.1007 246.756C57.3166 246.659 57.5055 246.526 57.6674 246.355C57.8294 246.182 57.9558 245.986 58.0467 245.767C58.1376 245.548 58.1831 245.318 58.1831 245.077C58.1831 244.756 58.1064 244.457 57.9529 244.182C57.8024 243.906 57.595 243.685 57.3308 243.517C57.0666 243.347 56.7654 243.261 56.4274 243.261ZM64.1884 251.145C63.5151 251.142 62.9398 250.964 62.4625 250.612C61.9853 250.26 61.6202 249.747 61.3674 249.074C61.1145 248.401 60.9881 247.589 60.9881 246.641C60.9881 245.695 61.1145 244.886 61.3674 244.216C61.623 243.545 61.9895 243.034 62.4668 242.682C62.9469 242.33 63.5208 242.153 64.1884 242.153C64.856 242.153 65.4284 242.331 65.9057 242.686C66.383 243.038 66.748 243.55 67.0009 244.22C67.2566 244.888 67.3844 245.695 67.3844 246.641C67.3844 247.592 67.258 248.405 67.0051 249.078C66.7523 249.749 66.3873 250.261 65.91 250.616C65.4327 250.969 64.8588 251.145 64.1884 251.145ZM64.1884 250.007C64.7793 250.007 65.2409 249.719 65.5733 249.142C65.9086 248.565 66.0762 247.732 66.0762 246.641C66.0762 245.916 65.9995 245.304 65.8461 244.804C65.6955 244.301 65.4782 243.92 65.1941 243.662C64.9128 243.401 64.5776 243.27 64.1884 243.27C63.6003 243.27 63.1387 243.56 62.8034 244.139C62.4682 244.719 62.2992 245.553 62.2963 246.641C62.2963 247.368 62.3716 247.983 62.5222 248.486C62.6756 248.986 62.8929 249.365 63.1742 249.624C63.4554 249.879 63.7935 250.007 64.1884 250.007Z" fill="#0F0F10"/>
<path d="M70.7271 244.909L68.8521 251.875H68.2385L70.1135 244.909H70.7271ZM71.5218 251V246.636H72.1696V247.318H72.2264C72.3173 247.085 72.4641 246.904 72.6667 246.776C72.8694 246.645 73.1127 246.58 73.3968 246.58C73.6847 246.58 73.9243 246.645 74.1156 246.776C74.3088 246.904 74.4593 247.085 74.5673 247.318H74.6127C74.7245 247.093 74.8921 246.914 75.1156 246.781C75.3391 246.647 75.6071 246.58 75.9196 246.58C76.3097 246.58 76.6288 246.702 76.877 246.946C77.1251 247.188 77.2491 247.566 77.2491 248.08V251H76.5787V248.08C76.5787 247.758 76.4906 247.527 76.3145 247.389C76.1383 247.251 75.9309 247.182 75.6923 247.182C75.3855 247.182 75.1478 247.275 74.9792 247.46C74.8107 247.644 74.7264 247.877 74.7264 248.159V251H74.0446V248.011C74.0446 247.763 73.9641 247.563 73.8031 247.412C73.6421 247.259 73.4347 247.182 73.1809 247.182C73.0067 247.182 72.8438 247.228 72.6923 247.321C72.5427 247.414 72.4215 247.543 72.3287 247.707C72.2377 247.87 72.1923 248.059 72.1923 248.273V251H71.5218ZM80.2477 251.091C79.8538 251.091 79.5081 250.997 79.2108 250.81C78.9153 250.622 78.6842 250.36 78.5176 250.023C78.3528 249.686 78.2704 249.292 78.2704 248.841C78.2704 248.386 78.3528 247.99 78.5176 247.651C78.6842 247.312 78.9153 247.048 79.2108 246.861C79.5081 246.673 79.8538 246.58 80.2477 246.58C80.6416 246.58 80.9863 246.673 81.2818 246.861C81.5791 247.048 81.8102 247.312 81.975 247.651C82.1416 247.99 82.225 248.386 82.225 248.841C82.225 249.292 82.1416 249.686 81.975 250.023C81.8102 250.36 81.5791 250.622 81.2818 250.81C80.9863 250.997 80.6416 251.091 80.2477 251.091ZM80.2477 250.489C80.5469 250.489 80.7931 250.412 80.9863 250.259C81.1795 250.105 81.3225 249.903 81.4153 249.653C81.5081 249.403 81.5545 249.133 81.5545 248.841C81.5545 248.549 81.5081 248.277 81.4153 248.026C81.3225 247.774 81.1795 247.57 80.9863 247.415C80.7931 247.259 80.5469 247.182 80.2477 247.182C79.9484 247.182 79.7022 247.259 79.5091 247.415C79.3159 247.57 79.1729 247.774 79.0801 248.026C78.9873 248.277 78.9409 248.549 78.9409 248.841C78.9409 249.133 78.9873 249.403 79.0801 249.653C79.1729 249.903 79.3159 250.105 79.5091 250.259C79.7022 250.412 79.9484 250.489 80.2477 250.489ZM83.9189 248.375V251H83.2484V246.636H83.8961V247.318H83.9529C84.0552 247.097 84.2105 246.919 84.4189 246.784C84.6272 246.648 84.8961 246.58 85.2257 246.58C85.5211 246.58 85.7797 246.64 86.0012 246.761C86.2228 246.881 86.3952 247.062 86.5183 247.307C86.6414 247.549 86.7029 247.856 86.7029 248.227V251H86.0325V248.273C86.0325 247.93 85.9435 247.663 85.7654 247.472C85.5874 247.278 85.3431 247.182 85.0325 247.182C84.8185 247.182 84.6272 247.228 84.4586 247.321C84.292 247.414 84.1603 247.549 84.0637 247.727C83.9672 247.905 83.9189 248.121 83.9189 248.375ZM89.8258 246.636V247.205H87.5645V246.636H89.8258ZM88.2235 245.591H88.894V249.75C88.894 249.939 88.9215 250.081 88.9764 250.176C89.0332 250.269 89.1052 250.331 89.1923 250.364C89.2813 250.394 89.3751 250.409 89.4735 250.409C89.5474 250.409 89.608 250.405 89.6554 250.398C89.7027 250.388 89.7406 250.381 89.769 250.375L89.9054 250.977C89.8599 250.994 89.7965 251.011 89.715 251.028C89.6336 251.047 89.5304 251.057 89.4054 251.057C89.216 251.057 89.0304 251.016 88.8485 250.935C88.6686 250.853 88.519 250.729 88.3997 250.562C88.2823 250.396 88.2235 250.186 88.2235 249.932V245.591ZM91.5985 248.375V251H90.9281V245.182H91.5985V247.318H91.6554C91.7576 247.093 91.911 246.914 92.1156 246.781C92.322 246.647 92.5967 246.58 92.9395 246.58C93.2368 246.58 93.4972 246.639 93.7207 246.759C93.9442 246.876 94.1175 247.057 94.2406 247.301C94.3656 247.544 94.4281 247.852 94.4281 248.227V251H93.7576V248.273C93.7576 247.926 93.6677 247.658 93.4877 247.469C93.3097 247.277 93.0626 247.182 92.7463 247.182C92.5266 247.182 92.3296 247.228 92.1554 247.321C91.983 247.414 91.8467 247.549 91.7463 247.727C91.6478 247.905 91.5985 248.121 91.5985 248.375Z" fill="#888E9E"/>
<g filter="url(#filter5_dd_11_63350)">
<path d="M110.5 218C110.5 214.686 113.186 212 116.5 212H178.5C181.814 212 184.5 214.686 184.5 218V274C184.5 277.314 181.814 280 178.5 280H116.5C113.186 280 110.5 277.314 110.5 274V218Z" fill="white"/>
<path d="M116.5 212.25H178.5C181.676 212.25 184.25 214.824 184.25 218V274C184.25 277.176 181.676 279.75 178.5 279.75H116.5C113.324 279.75 110.75 277.176 110.75 274V218C110.75 214.824 113.324 212.25 116.5 212.25Z" stroke="#EAEDF2" stroke-width="0.5"/>
</g>
<rect x="119.5" y="260" width="56" height="4" rx="2" fill="#DCE3E3"/>
<rect x="119.5" y="260" width="56" height="4" rx="2" fill="url(#paint8_linear_11_63350)"/>
<rect x="128.5" y="268" width="38" height="4" rx="2" fill="#EDF1F1"/>
<rect x="128.5" y="268" width="38" height="4" rx="2" fill="url(#paint9_linear_11_63350)"/>
<path d="M140.767 231V223.727H143.359C143.925 223.727 144.394 223.83 144.765 224.036C145.137 224.242 145.415 224.524 145.6 224.881C145.785 225.237 145.877 225.637 145.877 226.082C145.877 226.529 145.783 226.932 145.596 227.289C145.412 227.644 145.132 227.926 144.758 228.134C144.387 228.34 143.919 228.443 143.356 228.443H141.573V227.513H143.256C143.614 227.513 143.904 227.451 144.126 227.328C144.349 227.203 144.512 227.032 144.616 226.817C144.72 226.601 144.772 226.356 144.772 226.082C144.772 225.807 144.72 225.563 144.616 225.35C144.512 225.137 144.348 224.97 144.123 224.849C143.9 224.729 143.607 224.668 143.242 224.668H141.864V231H140.767ZM147.078 231V225.545H148.104V226.412H148.161C148.261 226.118 148.436 225.888 148.687 225.719C148.94 225.549 149.226 225.464 149.546 225.464C149.612 225.464 149.69 225.466 149.78 225.471C149.873 225.476 149.945 225.482 149.997 225.489V226.504C149.954 226.492 149.879 226.479 149.77 226.465C149.661 226.449 149.552 226.44 149.443 226.44C149.192 226.44 148.968 226.494 148.772 226.6C148.578 226.704 148.424 226.85 148.31 227.037C148.197 227.222 148.14 227.432 148.14 227.669V231H147.078ZM153.018 231.11C152.507 231.11 152.061 230.993 151.679 230.759C151.298 230.524 151.002 230.196 150.792 229.775C150.581 229.353 150.476 228.861 150.476 228.298C150.476 227.732 150.581 227.237 150.792 226.813C151.002 226.389 151.298 226.06 151.679 225.826C152.061 225.592 152.507 225.474 153.018 225.474C153.53 225.474 153.976 225.592 154.357 225.826C154.738 226.06 155.034 226.389 155.245 226.813C155.455 227.237 155.561 227.732 155.561 228.298C155.561 228.861 155.455 229.353 155.245 229.775C155.034 230.196 154.738 230.524 154.357 230.759C153.976 230.993 153.53 231.11 153.018 231.11ZM153.022 230.219C153.353 230.219 153.628 230.131 153.846 229.956C154.063 229.781 154.224 229.548 154.329 229.256C154.435 228.965 154.488 228.644 154.488 228.294C154.488 227.946 154.435 227.626 154.329 227.335C154.224 227.042 154.063 226.806 153.846 226.629C153.628 226.451 153.353 226.362 153.022 226.362C152.688 226.362 152.411 226.451 152.191 226.629C151.973 226.806 151.811 227.042 151.704 227.335C151.6 227.626 151.548 227.946 151.548 228.294C151.548 228.644 151.6 228.965 151.704 229.256C151.811 229.548 151.973 229.781 152.191 229.956C152.411 230.131 152.688 230.219 153.022 230.219Z" fill="#888E9E"/>
<path d="M122.16 252.091V241.182H122.858V252.091H122.16ZM124.346 244.565C124.3 244.162 124.113 243.849 123.783 243.628C123.454 243.403 123.039 243.291 122.539 243.291C122.181 243.291 121.871 243.348 121.61 243.462C121.349 243.572 121.145 243.726 121.001 243.922C120.858 244.115 120.787 244.335 120.787 244.582C120.787 244.79 120.836 244.969 120.932 245.119C121.032 245.27 121.161 245.396 121.32 245.499C121.482 245.598 121.655 245.682 121.84 245.75C122.025 245.815 122.202 245.869 122.373 245.912L123.225 246.134C123.503 246.202 123.789 246.294 124.081 246.411C124.374 246.527 124.645 246.68 124.895 246.871C125.145 247.061 125.347 247.297 125.501 247.578C125.657 247.859 125.735 248.196 125.735 248.588C125.735 249.082 125.607 249.521 125.351 249.905C125.099 250.288 124.731 250.591 124.248 250.812C123.768 251.034 123.187 251.145 122.505 251.145C121.851 251.145 121.286 251.041 120.809 250.834C120.331 250.626 119.958 250.332 119.688 249.952C119.418 249.568 119.269 249.114 119.241 248.588H120.562C120.587 248.903 120.689 249.166 120.868 249.376C121.05 249.584 121.282 249.739 121.563 249.841C121.847 249.94 122.158 249.99 122.496 249.99C122.868 249.99 123.199 249.932 123.489 249.815C123.782 249.696 124.012 249.531 124.18 249.321C124.347 249.108 124.431 248.859 124.431 248.575C124.431 248.317 124.357 248.105 124.209 247.94C124.064 247.776 123.867 247.639 123.617 247.531C123.37 247.423 123.09 247.328 122.778 247.246L121.746 246.964C121.047 246.774 120.493 246.494 120.084 246.125C119.678 245.756 119.475 245.267 119.475 244.659C119.475 244.156 119.611 243.717 119.884 243.342C120.157 242.967 120.526 242.676 120.992 242.469C121.458 242.259 121.983 242.153 122.569 242.153C123.16 242.153 123.681 242.257 124.133 242.464C124.587 242.672 124.945 242.957 125.206 243.321C125.468 243.682 125.604 244.097 125.616 244.565H124.346ZM127.006 249.295V248.23L130.777 242.273H131.617V243.841H131.084L128.387 248.111V248.179H133.556V249.295H127.006ZM131.144 251V248.972L131.152 248.486V242.273H132.401V251H131.144ZM137.921 251.119C137.387 251.119 136.907 251.017 136.481 250.812C136.058 250.605 135.72 250.321 135.467 249.96C135.214 249.599 135.079 249.188 135.062 248.724H136.34C136.372 249.099 136.538 249.408 136.839 249.649C137.14 249.891 137.501 250.011 137.921 250.011C138.257 250.011 138.553 249.935 138.812 249.781C139.073 249.625 139.278 249.411 139.426 249.138C139.576 248.865 139.651 248.554 139.651 248.205C139.651 247.849 139.575 247.533 139.421 247.254C139.268 246.976 139.056 246.757 138.786 246.598C138.519 246.439 138.213 246.358 137.866 246.355C137.602 246.355 137.336 246.401 137.069 246.491C136.802 246.582 136.586 246.702 136.421 246.849L135.215 246.67L135.705 242.273H140.504V243.402H136.801L136.524 245.844H136.575C136.745 245.679 136.971 245.541 137.252 245.43C137.536 245.32 137.84 245.264 138.164 245.264C138.695 245.264 139.169 245.391 139.583 245.643C140.001 245.896 140.329 246.241 140.568 246.679C140.809 247.114 140.928 247.614 140.926 248.179C140.928 248.744 140.801 249.249 140.542 249.692C140.286 250.135 139.931 250.484 139.477 250.74C139.025 250.993 138.507 251.119 137.921 251.119ZM145.52 251.145C144.847 251.142 144.272 250.964 143.795 250.612C143.317 250.26 142.952 249.747 142.699 249.074C142.447 248.401 142.32 247.589 142.32 246.641C142.32 245.695 142.447 244.886 142.699 244.216C142.955 243.545 143.322 243.034 143.799 242.682C144.279 242.33 144.853 242.153 145.52 242.153C146.188 242.153 146.76 242.331 147.238 242.686C147.715 243.038 148.08 243.55 148.333 244.22C148.589 244.888 148.716 245.695 148.716 246.641C148.716 247.592 148.59 248.405 148.337 249.078C148.084 249.749 147.719 250.261 147.242 250.616C146.765 250.969 146.191 251.145 145.52 251.145ZM145.52 250.007C146.111 250.007 146.573 249.719 146.905 249.142C147.241 248.565 147.408 247.732 147.408 246.641C147.408 245.916 147.331 245.304 147.178 244.804C147.028 244.301 146.81 243.92 146.526 243.662C146.245 243.401 145.91 243.27 145.52 243.27C144.932 243.27 144.471 243.56 144.135 244.139C143.8 244.719 143.631 245.553 143.628 246.641C143.628 247.368 143.704 247.983 143.854 248.486C144.008 248.986 144.225 249.365 144.506 249.624C144.787 249.879 145.126 250.007 145.52 250.007Z" fill="#0F0F10"/>
<path d="M152.059 244.909L150.184 251.875H149.57L151.445 244.909H152.059ZM152.854 251V246.636H153.502V247.318H153.558C153.649 247.085 153.796 246.904 153.999 246.776C154.201 246.645 154.445 246.58 154.729 246.58C155.017 246.58 155.256 246.645 155.448 246.776C155.641 246.904 155.791 247.085 155.899 247.318H155.945C156.057 247.093 156.224 246.914 156.448 246.781C156.671 246.647 156.939 246.58 157.252 246.58C157.642 246.58 157.961 246.702 158.209 246.946C158.457 247.188 158.581 247.566 158.581 248.08V251H157.911V248.08C157.911 247.758 157.823 247.527 157.646 247.389C157.47 247.251 157.263 247.182 157.024 247.182C156.718 247.182 156.48 247.275 156.311 247.46C156.143 247.644 156.058 247.877 156.058 248.159V251H155.377V248.011C155.377 247.763 155.296 247.563 155.135 247.412C154.974 247.259 154.767 247.182 154.513 247.182C154.339 247.182 154.176 247.228 154.024 247.321C153.875 247.414 153.753 247.543 153.661 247.707C153.57 247.87 153.524 248.059 153.524 248.273V251H152.854ZM161.58 251.091C161.186 251.091 160.84 250.997 160.543 250.81C160.247 250.622 160.016 250.36 159.85 250.023C159.685 249.686 159.602 249.292 159.602 248.841C159.602 248.386 159.685 247.99 159.85 247.651C160.016 247.312 160.247 247.048 160.543 246.861C160.84 246.673 161.186 246.58 161.58 246.58C161.974 246.58 162.318 246.673 162.614 246.861C162.911 247.048 163.142 247.312 163.307 247.651C163.474 247.99 163.557 248.386 163.557 248.841C163.557 249.292 163.474 249.686 163.307 250.023C163.142 250.36 162.911 250.622 162.614 250.81C162.318 250.997 161.974 251.091 161.58 251.091ZM161.58 250.489C161.879 250.489 162.125 250.412 162.318 250.259C162.512 250.105 162.655 249.903 162.747 249.653C162.84 249.403 162.887 249.133 162.887 248.841C162.887 248.549 162.84 248.277 162.747 248.026C162.655 247.774 162.512 247.57 162.318 247.415C162.125 247.259 161.879 247.182 161.58 247.182C161.28 247.182 161.034 247.259 160.841 247.415C160.648 247.57 160.505 247.774 160.412 248.026C160.319 248.277 160.273 248.549 160.273 248.841C160.273 249.133 160.319 249.403 160.412 249.653C160.505 249.903 160.648 250.105 160.841 250.259C161.034 250.412 161.28 250.489 161.58 250.489ZM165.251 248.375V251H164.58V246.636H165.228V247.318H165.285C165.387 247.097 165.543 246.919 165.751 246.784C165.959 246.648 166.228 246.58 166.558 246.58C166.853 246.58 167.112 246.64 167.333 246.761C167.555 246.881 167.727 247.062 167.85 247.307C167.973 247.549 168.035 247.856 168.035 248.227V251H167.365V248.273C167.365 247.93 167.276 247.663 167.097 247.472C166.919 247.278 166.675 247.182 166.365 247.182C166.151 247.182 165.959 247.228 165.791 247.321C165.624 247.414 165.492 247.549 165.396 247.727C165.299 247.905 165.251 248.121 165.251 248.375ZM171.158 246.636V247.205H168.896V246.636H171.158ZM169.556 245.591H170.226V249.75C170.226 249.939 170.253 250.081 170.308 250.176C170.365 250.269 170.437 250.331 170.524 250.364C170.613 250.394 170.707 250.409 170.806 250.409C170.879 250.409 170.94 250.405 170.987 250.398C171.035 250.388 171.073 250.381 171.101 250.375L171.237 250.977C171.192 250.994 171.128 251.011 171.047 251.028C170.966 251.047 170.862 251.057 170.737 251.057C170.548 251.057 170.362 251.016 170.181 250.935C170.001 250.853 169.851 250.729 169.732 250.562C169.614 250.396 169.556 250.186 169.556 249.932V245.591ZM172.931 248.375V251H172.26V245.182H172.931V247.318H172.987C173.09 247.093 173.243 246.914 173.448 246.781C173.654 246.647 173.929 246.58 174.271 246.58C174.569 246.58 174.829 246.639 175.053 246.759C175.276 246.876 175.45 247.057 175.573 247.301C175.698 247.544 175.76 247.852 175.76 248.227V251H175.09V248.273C175.09 247.926 175 247.658 174.82 247.469C174.642 247.277 174.395 247.182 174.078 247.182C173.859 247.182 173.662 247.228 173.487 247.321C173.315 247.414 173.179 247.549 173.078 247.727C172.98 247.905 172.931 248.121 172.931 248.375Z" fill="#888E9E"/>
<defs>
<filter id="filter0_d_11_63350" x="28" y="26" width="160" height="168" filterUnits="userSpaceOnUse" color-interpolation-filters="sRGB">
<feFlood flood-opacity="0" result="BackgroundImageFix"/>
<feColorMatrix in="SourceAlpha" type="matrix" values="0 0 0 0 0 0 0 0 0 0 0 0 0 0 0 0 0 0 127 0" result="hardAlpha"/>
<feOffset dy="1"/>
<feGaussianBlur stdDeviation="1"/>
<feColorMatrix type="matrix" values="0 0 0 0 0.0588235 0 0 0 0 0.0588235 0 0 0 0 0.0627451 0 0 0 0.05 0"/>
<feBlend mode="normal" in2="BackgroundImageFix" result="effect1_dropShadow_11_63350"/>
<feBlend mode="normal" in="SourceGraphic" in2="effect1_dropShadow_11_63350" result="shape"/>
</filter>
<filter id="filter1_dd_11_63350" x="0" y="39" width="216" height="164" filterUnits="userSpaceOnUse" color-interpolation-filters="sRGB">
<feFlood flood-opacity="0" result="BackgroundImageFix"/>
<feColorMatrix in="SourceAlpha" type="matrix" values="0 0 0 0 0 0 0 0 0 0 0 0 0 0 0 0 0 0 127 0" result="hardAlpha"/>
<feMorphology radius="2" operator="erode" in="SourceAlpha" result="effect1_dropShadow_11_63350"/>
<feOffset dy="4"/>
<feGaussianBlur stdDeviation="3"/>
<feColorMatrix type="matrix" values="0 0 0 0 0.0588235 0 0 0 0 0.0588235 0 0 0 0 0.0627451 0 0 0 0.03 0"/>
<feBlend mode="normal" in2="BackgroundImageFix" result="effect1_dropShadow_11_63350"/>
<feColorMatrix in="SourceAlpha" type="matrix" values="0 0 0 0 0 0 0 0 0 0 0 0 0 0 0 0 0 0 127 0" result="hardAlpha"/>
<feMorphology radius="4" operator="erode" in="SourceAlpha" result="effect2_dropShadow_11_63350"/>
<feOffset dy="12"/>
<feGaussianBlur stdDeviation="8"/>
<feColorMatrix type="matrix" values="0 0 0 0 0.0588235 0 0 0 0 0.0588235 0 0 0 0 0.0627451 0 0 0 0.08 0"/>
<feBlend mode="normal" in2="effect1_dropShadow_11_63350" result="effect2_dropShadow_11_63350"/>
<feBlend mode="normal" in="SourceGraphic" in2="effect2_dropShadow_11_63350" result="shape"/>
</filter>
<filter id="filter2_d_11_63350" x="148" y="124" width="58" height="58" filterUnits="userSpaceOnUse" color-interpolation-filters="sRGB">
<feFlood flood-opacity="0" result="BackgroundImageFix"/>
<feColorMatrix in="SourceAlpha" type="matrix" values="0 0 0 0 0 0 0 0 0 0 0 0 0 0 0 0 0 0 127 0" result="hardAlpha"/>
<feOffset dy="4"/>
<feGaussianBlur stdDeviation="4.5"/>
<feComposite in2="hardAlpha" operator="out"/>
<feColorMatrix type="matrix" values="0 0 0 0 0.215686 0 0 0 0 0.717647 0 0 0 0 0.576471 0 0 0 0.24 0"/>
<feBlend mode="normal" in2="BackgroundImageFix" result="effect1_dropShadow_11_63350"/>
<feBlend mode="normal" in="SourceGraphic" in2="effect1_dropShadow_11_63350" result="shape"/>
</filter>
<filter id="filter3_d_11_63350" x="20.5" y="222" width="176" height="50" filterUnits="userSpaceOnUse" color-interpolation-filters="sRGB">
<feFlood flood-opacity="0" result="BackgroundImageFix"/>
<feColorMatrix in="SourceAlpha" type="matrix" values="0 0 0 0 0 0 0 0 0 0 0 0 0 0 0 0 0 0 127 0" result="hardAlpha"/>
<feOffset dy="1"/>
<feGaussianBlur stdDeviation="1"/>
<feColorMatrix type="matrix" values="0 0 0 0 0.0941176 0 0 0 0 0.137255 0 0 0 0 0.133333 0 0 0 0.05 0"/>
<feBlend mode="normal" in2="BackgroundImageFix" result="effect1_dropShadow_11_63350"/>
<feBlend mode="normal" in="SourceGraphic" in2="effect1_dropShadow_11_63350" result="shape"/>
</filter>
<filter id="filter4_dd_11_63350" x="20.5" y="212" width="98" height="92" filterUnits="userSpaceOnUse" color-interpolation-filters="sRGB">
<feFlood flood-opacity="0" result="BackgroundImageFix"/>
<feColorMatrix in="SourceAlpha" type="matrix" values="0 0 0 0 0 0 0 0 0 0 0 0 0 0 0 0 0 0 127 0" result="hardAlpha"/>
<feMorphology radius="2" operator="erode" in="SourceAlpha" result="effect1_dropShadow_11_63350"/>
<feOffset dy="4"/>
<feGaussianBlur stdDeviation="3"/>
<feColorMatrix type="matrix" values="0 0 0 0 0.0588235 0 0 0 0 0.0588235 0 0 0 0 0.0627451 0 0 0 0.03 0"/>
<feBlend mode="normal" in2="BackgroundImageFix" result="effect1_dropShadow_11_63350"/>
<feColorMatrix in="SourceAlpha" type="matrix" values="0 0 0 0 0 0 0 0 0 0 0 0 0 0 0 0 0 0 127 0" result="hardAlpha"/>
<feMorphology radius="4" operator="erode" in="SourceAlpha" result="effect2_dropShadow_11_63350"/>
<feOffset dy="12"/>
<feGaussianBlur stdDeviation="8"/>
<feColorMatrix type="matrix" values="0 0 0 0 0.0588235 0 0 0 0 0.0588235 0 0 0 0 0.0627451 0 0 0 0.08 0"/>
<feBlend mode="normal" in2="effect1_dropShadow_11_63350" result="effect2_dropShadow_11_63350"/>
<feBlend mode="normal" in="SourceGraphic" in2="effect2_dropShadow_11_63350" result="shape"/>
</filter>
<filter id="filter5_dd_11_63350" x="98.5" y="212" width="98" height="92" filterUnits="userSpaceOnUse" color-interpolation-filters="sRGB">
<feFlood flood-opacity="0" result="BackgroundImageFix"/>
<feColorMatrix in="SourceAlpha" type="matrix" values="0 0 0 0 0 0 0 0 0 0 0 0 0 0 0 0 0 0 127 0" result="hardAlpha"/>
<feMorphology radius="2" operator="erode" in="SourceAlpha" result="effect1_dropShadow_11_63350"/>
<feOffset dy="4"/>
<feGaussianBlur stdDeviation="3"/>
<feColorMatrix type="matrix" values="0 0 0 0 0.0588235 0 0 0 0 0.0588235 0 0 0 0 0.0627451 0 0 0 0.03 0"/>
<feBlend mode="normal" in2="BackgroundImageFix" result="effect1_dropShadow_11_63350"/>
<feColorMatrix in="SourceAlpha" type="matrix" values="0 0 0 0 0 0 0 0 0 0 0 0 0 0 0 0 0 0 127 0" result="hardAlpha"/>
<feMorphology radius="4" operator="erode" in="SourceAlpha" result="effect2_dropShadow_11_63350"/>
<feOffset dy="12"/>
<feGaussianBlur stdDeviation="8"/>
<feColorMatrix type="matrix" values="0 0 0 0 0.0588235 0 0 0 0 0.0588235 0 0 0 0 0.0627451 0 0 0 0.08 0"/>
<feBlend mode="normal" in2="effect1_dropShadow_11_63350" result="effect2_dropShadow_11_63350"/>
<feBlend mode="normal" in="SourceGraphic" in2="effect2_dropShadow_11_63350" result="shape"/>
</filter>
<linearGradient id="paint0_linear_11_63350" x1="59.4091" y1="56.7619" x2="169.591" y2="56.7619" gradientUnits="userSpaceOnUse">
<stop offset="0.00583074" stop-color="#DFE1E6"/>
<stop offset="0.42674" stop-color="#F3F4F6"/>
<stop offset="1" stop-color="#F8F9FB"/>
</linearGradient>
<linearGradient id="paint1_linear_11_63350" x1="58.8182" y1="72.8095" x2="183.182" y2="72.8095" gradientUnits="userSpaceOnUse">
<stop offset="0.00583074" stop-color="#DFE1E6"/>
<stop offset="0.42674" stop-color="#F3F4F6"/>
<stop offset="1" stop-color="#F8F9FB"/>
</linearGradient>
<linearGradient id="paint2_linear_11_63350" x1="18" y1="93.8571" x2="66" y2="93.8571" gradientUnits="userSpaceOnUse">
<stop offset="0.00583074" stop-color="#DFE1E6"/>
<stop offset="0.42674" stop-color="#F3F4F6"/>
<stop offset="1" stop-color="#F8F9FB"/>
</linearGradient>
<linearGradient id="paint3_linear_11_63350" x1="40" y1="140.857" x2="88" y2="140.857" gradientUnits="userSpaceOnUse">
<stop offset="0.00583074" stop-color="#DFE1E6"/>
<stop offset="0.42674" stop-color="#F3F4F6"/>
<stop offset="1" stop-color="#F8F9FB"/>
</linearGradient>
<linearGradient id="paint4_linear_11_63350" x1="40" y1="160.857" x2="88" y2="160.857" gradientUnits="userSpaceOnUse">
<stop offset="0.00583074" stop-color="#DFE1E6"/>
<stop offset="0.42674" stop-color="#F3F4F6"/>
<stop offset="1" stop-color="#F8F9FB"/>
</linearGradient>
<linearGradient id="paint5_linear_11_63350" x1="38.9545" y1="261.905" x2="100.045" y2="261.905" gradientUnits="userSpaceOnUse">
<stop stop-color="#F3F4F6"/>
<stop offset="0.265" stop-color="#EBEDF0"/>
<stop offset="0.485" stop-color="#DFE1E6"/>
<stop offset="1" stop-color="#F8F9FB"/>
</linearGradient>
<linearGradient id="paint6_linear_11_63350" x1="48.7727" y1="269.905" x2="90.2273" y2="269.905" gradientUnits="userSpaceOnUse">
<stop offset="0.00583074" stop-color="#DFE1E6"/>
<stop offset="0.42674" stop-color="#F3F4F6"/>
<stop offset="1" stop-color="#F8F9FB"/>
</linearGradient>
<linearGradient id="paint7_linear_11_63350" x1="48.7727" y1="269.905" x2="90.2273" y2="269.905" gradientUnits="userSpaceOnUse">
<stop stop-color="#F3F4F6"/>
<stop offset="0.265" stop-color="#EBEDF0"/>
<stop offset="0.485" stop-color="#DFE1E6"/>
<stop offset="1" stop-color="#F8F9FB"/>
</linearGradient>
<linearGradient id="paint8_linear_11_63350" x1="116.955" y1="261.905" x2="178.045" y2="261.905" gradientUnits="userSpaceOnUse">
<stop stop-color="#F3F4F6"/>
<stop offset="0.265" stop-color="#EBEDF0"/>
<stop offset="0.485" stop-color="#DFE1E6"/>
<stop offset="1" stop-color="#F8F9FB"/>
</linearGradient>
<linearGradient id="paint9_linear_11_63350" x1="126.773" y1="269.905" x2="168.227" y2="269.905" gradientUnits="userSpaceOnUse">
<stop stop-color="#F3F4F6"/>
<stop offset="0.265" stop-color="#EBEDF0"/>
<stop offset="0.485" stop-color="#DFE1E6"/>
<stop offset="1" stop-color="#F8F9FB"/>
</linearGradient>
</defs>
</svg>
